<svg xmlns="http://www.w3.org/2000/svg" width="250" height="250" viewBox="0 0 250 250" fill="none">
<path d="M 123.82,15 C 99.71,15 80.81,21.44 65.71,31.83 L 74.41,38.01 C 88.73,29.86 103.81,24.64 123.82,24.64 C 180.69,24.64 228.64,71.89 228.64,129.15 C 228.64,139.01 227.06,147.78 225.13,156.06 C 222.54,144.81 210.96,134.76 197.77,134.76 C 193.99,134.76 190.07,135.72 188.41,137.31 C 199.72,136.98 215.97,144.96 214.22,174.7 C 212.42,166.84 208.79,150.71 188.76,146.52 L 189.18,147.26 C 203.89,153.94 206.21,168.81 200.45,179.99 C 194.57,191.41 185.99,195.78 180.02,197.44 C 190.31,192.75 195.44,183.04 195.19,172.74 C 194.96,163.65 186.91,153.62 177.19,153.99 C 167.07,154.38 162.12,160.71 162.09,170.52 L 162.71,169.81 C 164.94,165.18 168.72,163.22 172.57,163.65 C 178.61,164.32 182.13,169.92 181.81,174.04 C 180.74,186.19 167.87,192.91 160.04,192.91 C 156.02,192.91 153.22,192.61 150.94,191.97 C 163.66,191.97 171.06,183.91 173.13,173.41 L 172.47,173.06 C 166.66,181.71 158.01,183.82 146.31,183.82 C 143.11,180.18 141.88,179.79 138.03,179.79 H 132.78 L 123.56,170.08 C 130.98,164.92 133.72,160.99 130.91,151.92 L 129.39,146.79 C 120.11,147.71 108.69,150.02 107.03,156.13 C 111.91,157.16 115.72,162.86 113.72,166.11 C 112.23,168.85 110.96,169.31 110.96,171.89 C 114.02,174.63 117.91,177.95 119.01,179.51 L 110.43,176.36 C 126.06,191.93 139.82,207.88 169.78,207.88 C 184.78,207.88 192.72,204.89 200.11,199.19 C 191.63,209.86 181.58,213.46 168.39,213.46 C 147.24,213.46 129.29,204.43 117.49,192.07 C 102.88,176.5 87.46,163.51 65.4,163.51 C 52.81,163.51 38.91,170.01 31.62,175.81 C 23.86,161.91 20.01,148.19 20.01,129.15 C 20.01,108.84 26.71,90.16 35.96,73.86 C 33.29,70.18 31.42,67.03 30.12,65.11 C 16.39,84.77 10.51,105.15 10.51,129.75 C 10.51,188.14 59.11,242.5 122.48,242.5 C 183.73,242.5 238.32,192.81 238.32,129.15 C 238.32,69.11 188.83,15 123.82,15 Z M 86.86,225.22 C 74.06,221.97 71.46,208.88 66.96,200.23 C 62.22,192.31 53.16,189.73 45.77,194.22 C 51.68,187.76 61.73,188.32 68.12,194.15 C 76.77,201.18 75.28,211.61 86.86,225.22 Z M 151.89,227.96 C 126.31,227.11 110.32,212.21 101.36,192.07 C 116.29,208.16 132.11,224.12 169.85,222.21 C 164.97,225.22 157.21,227.96 151.89,227.96 Z M 36.06,182.86 C 42.79,176.53 50.73,173.62 60.05,173.62 C 70.14,173.62 83.33,181.16 88.89,193.18 C 97.16,211.4 104.12,228.63 123.81,233.22 C 106.71,234.21 97.99,222.86 87.11,201.72 C 80.93,188.52 72.92,178.71 57.06,178.71 C 49.81,178.71 43.01,181.26 36.82,184.9 L 36.06,182.86 Z" fill="#B18000"/>
<path d="M 41.21,68.97 C 49.86,77.81 59.81,79.96 76.06,86.71 C 65.01,86.95 52.11,85.39 43.88,81.59 C 51.16,93.41 59.14,96.25 78.46,98.17 L 84.89,98.91 C 77.71,101.26 71.74,102.36 62.02,101.02 C 67.92,107.61 78.67,108.91 84.96,108.13 L 94.98,106.72 C 90.38,110.43 87.11,112.21 80.82,113.7 C 88.21,116.75 97.27,117.49 103.77,113.01 C 102.7,116.61 100.66,118.08 96.03,119.11 C 104.29,120.14 110.17,118.42 115.12,115.9 C 110.86,121.73 105.19,123.81 96.47,126.09 C 85.02,129.24 76.23,143.06 70.81,148.22 C 66.41,151.93 64.12,151.54 60.13,151.33 C 54.81,150.98 51.72,145.68 52.71,141.72 C 54.27,134.83 61.83,132.51 64.82,125.73 C 67.81,119.23 64.82,110.82 54.14,107.25 C 49.26,109.87 43.01,106.16 42.32,99.21 C 38.73,103.43 39.59,110.61 42.32,112.93 L 37.72,111.11 C 40.92,117.73 45.29,120.21 52.43,119.08 C 56.83,118.19 58.93,119.49 58.73,123.06 C 58.11,128.82 48.26,132.46 46.32,139.71 C 43.82,148.43 49.38,157.3 60.13,157.72 C 70.08,158.11 76.19,150.29 81.41,145.36 L 81.06,159.51 C 88.62,161.72 90.81,163.31 97.92,166.7 C 104.14,161.61 104.97,145.82 107.88,138.38 C 106.01,144.45 107.08,146.11 107.08,150.11 C 113.05,144.11 120.13,144.43 128.43,143.16 C 135.16,142.06 139.9,139.68 145.91,137.76 C 141.24,137.08 137.05,136.09 135.18,134.01 L 140.27,132.49 L 133.77,133.16 C 134.73,127.73 133.77,125.21 131.6,120.73 C 132.87,127.12 131.12,130.76 127.71,133.7 C 131.6,135.26 136.13,135.93 142.17,136.96 C 147.05,137.63 152.24,138.45 158.35,140.37 C 159.31,142.36 158.18,143.03 157.01,144.47 C 154.41,147.62 156.07,152.1 162.22,152.81 C 159.69,149.21 160.11,146.96 165.54,143.03 C 168.53,143.92 171.41,145.12 174.18,147.1 C 173.98,149.12 174.21,150.11 175.17,150.11 C 177.7,149.19 179.26,146.96 178.91,143.61 C 178.22,141.72 176.95,140.8 173.62,139.91 C 177.54,138.06 179.83,139.16 181.32,144.12 C 183.75,140.62 182.68,135.16 175.29,133.6 C 172.06,133.92 170.02,135.71 166.72,134.21 L 149.12,122.06 C 151.06,115.11 150.23,111.11 147.7,105.28 C 153.41,109.25 155.81,114.81 156.57,124.87 L 160.13,123.31 C 163.12,118.42 164.61,115.24 165.57,111.18 C 166.93,115.56 166.93,118.11 165.57,124.8 L 167.41,123.63 L 178.46,111.48 C 178.78,117.11 180.91,119.66 186.81,119.06 C 184.28,117.43 183.83,116.16 184.21,112.13 C 185.67,108.13 188.34,107.46 191.11,107.11 C 195.27,106.51 196.92,107.71 197.61,110.73 C 200.35,107.64 199.93,104.11 196.73,102.7 C 194.96,102.28 192.99,102.49 190.46,102.7 C 191.92,98.7 194.62,97.71 199.43,101.87 C 198.67,97.11 194.96,95.61 190.63,95.61 C 187.72,95.61 186.42,98.83 182.43,101.63 C 177.73,104.78 174.43,106.02 168.49,107.91 C 168.49,101.52 166.26,94.53 162.03,91.03 L 165.09,90.36 C 161.63,85.91 155.41,81.91 155.41,76.41 C 155.41,72.32 161.12,68.72 166.37,68.72 C 168.97,68.72 169.66,70.02 169.91,72.82 C 173.04,70.09 173.42,65.03 171.03,61.91 C 168.87,58.97 165.31,57.7 162.71,57.03 C 160.49,52.37 157.46,50.02 150.41,50.19 C 139.83,50.4 129.01,49.62 125.16,43.79 C 125.16,49.62 127.93,53.62 132.19,55.93 C 128.99,56.54 127.12,55.76 124.52,53.71 C 126.39,57.77 128.26,59.62 131.75,61.12 C 126.7,64.76 125.44,69.21 124.24,76.65 L 127.54,73.91 C 126.81,77.23 125.41,82.19 124.65,87.65 C 124.42,89.34 123.39,89.91 123.81,90.62 C 125.51,92.73 132.47,93.41 135.74,96.09 C 138.97,98.73 139.83,100.26 140.69,102.91 C 137.23,98.91 133.71,97.19 127.25,96.2 C 120.17,94.93 114.23,89.77 114.06,80.06 C 113.71,67.41 111.55,62.78 92.07,54.37 C 73.61,46.83 50.28,35.21 41.16,6.5 C 37.14,15.77 37.24,25.11 46.63,37.73 C 53.02,46.14 62.61,51.97 67.56,58.11 C 54.76,51.22 41.16,43.72 31.11,25.11 C 29.24,37.73 35.63,50.19 46.01,57.7 C 55.07,64.66 63.05,67.21 69.91,73.48 C 56.01,67.65 42.42,66.12 31.77,52.51 C 33.64,60.43 36.21,64.72 41.21,68.97 Z M 157.77,58.23 L 153.41,60.81 L 149.56,57.21 C 153.82,57.21 155.69,57.28 157.77,58.23 Z M 72.51,50.47 C 77.76,57.91 82.43,60.81 89.85,64.07 C 95.07,66.52 97.71,69.39 99.68,74.21 C 94.01,68.82 89.06,67.65 83.12,64.24 C 77.15,60.81 73.98,56.26 72.51,50.47 Z M 74.38,68.62 C 80.35,75.08 85.3,76.83 92.72,79.38 C 97.61,81.11 99.48,82.73 100.61,85.95 C 96.21,83.15 90.89,82.22 86.49,79.67 C 81.61,76.83 77.38,73.78 74.38,68.62 Z M 82.36,85.71 C 87.61,89.31 90.11,90.05 94.03,91.01 C 97.52,91.93 99.91,92.61 102.44,94.59 C 93.79,94.24 87.03,92.13 82.36,85.71 Z M 92.72,100.12 C 98.12,100.87 102.52,101.83 107.91,102.82 C 103.21,104.61 97.61,103.65 92.72,100.12 Z M 105.31,108.7 C 108.8,108.09 110.67,107.81 114.52,108.09 C 111.92,110.64 108.07,110.64 105.31,108.7 Z" fill="#B18000"/>
</svg>